<?xml version="1.0" encoding="utf-8"?>
<!-- Generator: Adobe Illustrator 16.0.4, SVG Export Plug-In . SVG Version: 6.00 Build 0)  -->
<!DOCTYPE svg PUBLIC "-//W3C//DTD SVG 1.1//EN" "http://www.w3.org/Graphics/SVG/1.1/DTD/svg11.dtd">
<svg version="1.1" id="Calque_1" xmlns="http://www.w3.org/2000/svg" xmlns:xlink="http://www.w3.org/1999/xlink" x="0px" y="0px"
	 width="16px" height="64px" viewBox="0 0 16 64" enable-background="new 0 0 16 64" xml:space="preserve">
<polygon opacity="0.25" fill="#515151" points="12.953,15.991 8.006,13.263 3.063,16 4.003,10.212 0,6.116 5.527,5.267 7.995,0 
	10.473,5.263 16,6.103 12.003,10.206 "/>
<polygon fill="#57A16E" points="12.953,31.99 8.006,29.263 3.064,32 4.003,26.212 0,22.116 5.526,21.267 7.995,16 10.473,21.263 
	16,22.103 12.003,26.205 "/>
<polygon fill="#57A16E" points="12.953,47.99 8.006,45.264 3.064,48 4.003,42.212 0,38.116 5.526,37.268 7.995,32 10.473,37.264 
	16,38.104 12.003,42.205 "/>
<polygon fill="#57A16E" points="12.953,63.99 8.006,61.264 3.064,64 4.003,58.212 0,54.116 5.526,53.268 7.995,48 10.473,53.264 
	16,54.104 12.003,58.205 "/>
</svg>
