<?xml version="1.0" encoding="utf-8"?>
<!-- Generator: Adobe Illustrator 16.0.4, SVG Export Plug-In . SVG Version: 6.00 Build 0)  -->
<!DOCTYPE svg PUBLIC "-//W3C//DTD SVG 1.1//EN" "http://www.w3.org/Graphics/SVG/1.1/DTD/svg11.dtd">
<svg version="1.1" xmlns="http://www.w3.org/2000/svg" xmlns:xlink="http://www.w3.org/1999/xlink" x="0px" y="0px" width="100px"
	 height="120px" viewBox="0 0 100 120" enable-background="new 0 0 100 120" xml:space="preserve">
<g id="Calque_1" display="none">
	<path display="inline" fill="#FFFFFF" d="M0.5,0v120h100V0H0.5z M95.5,65.75H5V5h90.5V65.75z"/>
	<rect y="78" display="inline" fill="none" width="100" height="27.5"/>
	<text transform="matrix(1 0 0 1 34.6494 88.2617)" display="inline"><tspan x="0" y="0" fill="#676767" font-family="'Verlag-Bold'" font-size="14">1/4 H</tspan><tspan x="-28.272" y="14" fill="#676767" font-family="'Verlag-Book'" font-size="14">480 px X 325 px</tspan></text>
</g>
<g id="Calque_2" display="none">
	<path display="inline" fill="#FFFFFF" d="M0.25,0v120h100V0H0.25z M47.75,65.75h-43V5h43V65.75z"/>
	<rect x="-0.25" y="78" display="inline" fill="none" width="100" height="27.5"/>
	<text transform="matrix(1 0 0 1 34.7354 88.2617)" display="inline"><tspan x="0" y="0" fill="#676767" font-family="'Verlag-Bold'" font-size="14">1/8 V</tspan><tspan x="-27.867" y="14" fill="#676767" font-family="'Verlag-Book'" font-size="14">230 px X 325 px</tspan></text>
</g>
<g id="Calque_3">
	<path fill="#FFFFFF" d="M0.25,0v120h100V0H0.25z M94.75,65.75h-90V36.5h90V65.75z"/>
	<rect x="-0.25" y="78" fill="none" width="100" height="27.5"/>
	<text transform="matrix(1 0 0 1 34.3223 88.2617)"><tspan x="0" y="0" fill="#676767" font-family="'Verlag-Bold'" font-size="14">1/8 H</tspan><tspan x="-27.628" y="14" fill="#676767" font-family="'Verlag-Book'" font-size="14">480 px X 152 px</tspan></text>
</g>
<g id="Calque_4" display="none">
	<path display="inline" fill="#FFFFFF" d="M0.25,0v120h100V0H0.25z M47.75,65.75h-43V37h43V65.75z"/>
	<rect x="-0.25" y="78" display="inline" fill="none" width="100" height="27.5"/>
	<text transform="matrix(1 0 0 1 32.1523 88.2617)" display="inline"><tspan x="0" y="0" fill="#676767" font-family="'Verlag-Bold'" font-size="14">1/16 V</tspan><tspan x="-24.716" y="14" fill="#676767" font-family="'Verlag-Book'" font-size="14">230 px X 152 px</tspan></text>
</g>
</svg>
